<?xml version="1.0" encoding="utf-8"?>
<!-- Generator: Adobe Illustrator 28.0.0, SVG Export Plug-In . SVG Version: 6.00 Build 0)  -->
<svg version="1.1" id="Layer_1" xmlns="http://www.w3.org/2000/svg" xmlns:xlink="http://www.w3.org/1999/xlink" x="0px" y="0px"
	 viewBox="0 0 2000 2000" style="enable-background:new 0 0 2000 2000;" xml:space="preserve">
<style type="text/css">
	.st0{fill:#006644;}
	.st1{fill:#D80529;}
	.st2{fill:#FEBA12;}
	.st3{fill:#FD9800;}
	.st4{fill:#6FAE1E;}
	.st5{fill:#F8F7F3;}
	.st6{fill:#A93F15;}
	.st7{opacity:0.19;}
	.st8{fill:#127636;}
</style>
<g>
	<g>
		<path class="st0" d="M679.44,1503.1c-12.83,0.72-25.52,1.43-38.1,2.19v-153.97c-4.63-0.17-7.51-0.41-10.39-0.41
			c-87.09-0.13-174.18-0.36-261.27-0.17c-9.21,0.02-16.09-1.95-21.48-9.82c-3.44-5.03-8.36-9.05-13.41-15.05H639.1
			c3.45-37.13-1.12-58.18-17.03-77.04c11.95-7.02,24.24-8.64,37.07-3.58c9.65,3.81,14.84,11.46,15.36,21.61
			c0.78,15.08,0.89,30.21,1.23,45.31c0.1,4.51,0.02,9.02,0.02,14.93c4.66,0,8.75-0.01,12.83,0c22.38,0.08,44.76,0.11,67.14,0.27
			c11.8,0.08,12.83,1.22,12.48,12.97c-0.1,3.27-0.49,6.54-0.8,7.98h-90.13v43.29c1.72-4.25,4.92-7.58,8.06-10.96
			c13.66-14.73,30.42-19.98,49.3-13.34c19.99,7.02,25.73,24.64,26.56,43.48c0.9,20.51-0.89,41.13-0.05,61.64
			c0.41,10.06,4.13,19.99,6.78,31.88c-8.32,0.66-19.18,2.64-29.88,1.99c-7.47-0.45-8.97-8.08-9.01-14.74
			c-0.13-18.75,0.1-37.5-0.14-56.25c-0.1-7.83-0.49-15.73-1.71-23.46c-2.28-14.51-14.57-21.26-28.22-15.67
			c-12.73,5.21-21.28,15.21-22.57,28.45C673.9,1450.29,671.68,1476.22,679.44,1503.1z"/>
		<path class="st0" d="M760.94,1252.35c0.65-1.5,0.76-1.76,1.4-3.26c9.61-0.38,19.35-1.73,28.76-0.53
			c11.12,1.41,18.21,10.31,18.99,22.3c0.95,14.47,0.83,29.01,1.06,43.52c0.2,12.51,0.13,12.59,13.09,12.61
			c61.09,0.1,122.18,0.15,183.27,0.24c4.63,0.01,10.25-1.55,10.31,6.19c0.06,7.97-5.03,16.22-10.76,16.25
			c-17.84,0.08-35.68-0.47-53.51-0.37c-44.44,0.23-88.89,0.68-133.33,1.08c-2.65,0.02-5.3,0.41-8.23,0.64v70.41
			c1.62,0.58,1.62,0.58,3.24,1.17c10.5-12.56,21.63-24.66,31.17-37.92c5.59-7.77-0.87-14.66-6.31-20.47
			c13.25-10.33,38.51-7.79,47.8,4.98c1.05,1.44-0.44,6.15-2.19,7.97c-12.12,12.67-24.39,25.21-37.1,37.28
			c-5.41,5.14-7.06,9.25-2.15,15.81c20.62,27.55,40.51,55.66,61.55,82.87c5.24,6.78,13.83,10.98,20.99,16.45
			c-6.04,9.71-27.67,12.43-40.72,4.33c-15.29-9.49-25.93-23-35.61-37.94c-10.14-15.66-21.9-30.27-33.1-45.23
			c-1.66-2.22-4.15-3.82-7.77-7.07c-0.43,21.41,0.19,40.38,10.79,58.23c-11.29,5.17-22.72,4.14-33.82,2.25
			c-7.74-1.32-9.84-8.04-9.86-15.31c-0.07-28.41-0.04-56.83-0.32-85.24c-0.35-35.38-1.03-70.76-1.46-106.13
			C776.85,1273.86,775.27,1269.25,760.94,1252.35z"/>
		<path class="st1" d="M311.55,1504c-11.36,6.16-45.32,10.15-60.73,7.4c-0.09-0.29-0.35-0.65-0.26-0.85
			c13.47-29.46,6.11-60.68,7.6-91.14c0.54-11.08,0.09-22.21,0.09-34.25c-12.28,2.19-23.09,4.11-33.89,6.04
			c-1.07-1.33-1.29-1.61-2.36-2.95c2.4-5.75,4.08-12.03,7.68-16.9c3.04-4.11,8.27-8.31,13.08-9.1c15.28-2.51,16.3-12,15.44-24.57
			c-0.99-14.45-0.86-29.04-0.2-43.52c0.82-18.03-4.9-32.34-19.96-42.94c-4.57-3.22-7.97-8.1-11.9-12.24
			c0.71-1.72,0.76-1.84,1.48-3.57c31.32,0,62.65-0.12,93.97,0.04c18.74,0.1,37.49,0.55,56.23,1.01c10.63,0.26,15.4,4,17.91,14.24
			c3.35,13.67,3.35,27.31-0.9,40.71c-1.91,0.2-2.19,0.23-4.1,0.43c-1.99-3.49-3.61-7.31-6.17-10.31
			c-9.3-10.91-20.9-16.68-35.73-16.15c-15.99,0.57-32.01,0.13-48.77,0.13v84.07c11.96,1.04,23.99,1.47,35.83,3.23
			c30.21,4.48,25.54,2.1,20.35,27.85c-1.24,6.17-2.95,12.26-4.18,17.31c-17.17-5.41-33.86-10.66-51.27-16.15
			c-0.77,3.89-1.3,5.27-1.28,6.65c0.37,24.79,0.85,49.57,1.23,74.35C300.96,1477.46,302.12,1491.83,311.55,1504z"/>
		<path class="st0" d="M461.15,1365.43c4.48-0.87,11.1-2.93,17.82-3.27c9.32-0.47,16.49,5.07,18.02,14.42
			c1.45,8.86,1.32,18.01,1.53,27.04c0.62,25.93,0.64,51.89,1.84,77.8c0.32,6.92,4.01,13.69,6.8,22.59
			c-9.19,0.82-19.74,4.7-27.46,1.58c-7.01-2.83-10.95-13.27-17.21-21.66c-1.24,1.58-3.19,5.85-6.5,7.93
			c-8.8,5.53-17.67,12.37-27.45,14.64c-22.3,5.18-39.03-5.64-45.71-27.69c-2.25-7.42-3.51-15.37-3.77-23.12
			c-0.5-15.09,0.47-30.23-0.01-45.32c-0.45-14.27-1.98-28.51-3.18-44.62c3.88-0.9,10.11-3.08,16.47-3.63
			c10.03-0.87,16.74,4.44,18.9,14.36c1.08,4.96,1.5,10.15,1.56,15.24c0.24,19.94-0.14,39.89,0.5,59.81
			c0.19,5.79,2.1,11.97,4.79,17.16c5.46,10.54,17.51,14.41,27.9,8.77c11.95-6.49,21.71-14.41,20.08-30.86
			c-1.36-13.76,0.43-27.81-0.31-41.66C465.09,1392.29,462.88,1379.72,461.15,1365.43z"/>
		<path class="st0" d="M967.84,1487.02c-8.24,5.43-16.1,12.19-25.17,16.25c-15.65,7.01-31.74,3.14-41.42-8.06
			c-12.1-14.01-14.11-30.53-5.33-46.11c8.26-14.67,21.3-23.56,36.71-29.3c8.75-3.26,17.88-5.6,26.34-9.45
			c3.78-1.72,9.44-7.06,8.82-9.18c-1.49-5.13-5.5-12.33-9.71-13.27c-8.06-1.8-17.14-0.75-25.45,0.86
			c-7.76,1.51-15.08,5.28-22.72,8.11c-3.54-19.49,2.19-30.32,19.14-36.57c14.03-5.17,28.45-5.44,42.65-0.96
			c18.25,5.76,28.95,20.55,29.27,40.23c0.31,19.34,0.18,38.68,0,58.02c-0.12,12.82,1.81,24.69,12.4,33.52
			c1.04,0.87,1.41,2.55,2.07,3.8C993.38,1511.89,976.67,1508.67,967.84,1487.02z M967.16,1425.7c-11.6,5.76-23.3,11.16-34.58,17.31
			c-8.67,4.72-12.28,16.09-9.04,26.21c2.47,7.74,8.5,11.52,16.01,10.33c7.27-1.15,14.57-3.72,21.12-7.11
			c3.06-1.58,5.98-6.44,6.2-9.99C967.63,1450.44,967.16,1438.36,967.16,1425.7z"/>
		<path class="st0" d="M628.25,1464.76c-1.17,4.5-1.61,9.37-3.64,13.44c-9.13,18.36-23.83,29.08-44.57,30.92
			c-23.25,2.06-41.26-6.88-53.85-26.32c-20.88-32.22-16.77-70.42,10.31-97.73c16.88-17.02,36.89-26.96,61.37-26.02
			c4.17,0.16,8.63,0.47,12.38,2.06c8.12,3.44,14.2,9.19,15.27,18.6c1.03,9.04-3.89,16.4-15.91,23.84c-2.8-2.37-5.86-4.77-8.7-7.4
			c-11.51-10.7-25.11-11.69-38.82-6.62c-13.47,4.98-17.8,16.72-18.71,30.36c-0.96,14.51,3.09,27.39,10.94,39.3
			c14.7,22.31,40.54,26.65,62.03,10.52c3.03-2.28,6.18-4.4,9.27-6.6C626.51,1463.65,627.38,1464.21,628.25,1464.76z"/>
		<path class="st0" d="M1272.78,1501.16c0,16.39-1.06,35.36,0.53,54.1c0.61,7.23,7.25,13.94,12.17,22.73
			c-4.46,1.06-9.85,3.33-15.29,3.47c-23.15,0.58-29.82-4.94-30.17-27.86c-0.65-42-0.1-84.02-0.07-126.03
			c0.01-7.86-0.03-15.72-0.12-23.58c-0.16-13.89,0.73-28.11-12.16-37.95c15.76-10.65,29.97-7.07,43.98,10.79
			c10.86-12.39,24.73-17.91,41.05-16.84c23.21,1.52,43.61,21.36,47.63,46.12c5.96,36.74-15.05,75.82-49.55,88.76
			C1299.12,1499.25,1285.79,1499.15,1272.78,1501.16z M1271.7,1435.02c0,10.25-0.27,20.51,0.17,30.73c0.12,2.84,1.57,6.63,3.72,8.21
			c10.18,7.49,28.14,6.85,38.25-0.73c24.07-18.05,23.03-65.74-1.93-82.7c-8.88-6.03-18.52-7-28.18-1.91
			c-9.11,4.8-13.29,12.2-12.18,22.91C1272.35,1419.28,1271.7,1427.18,1271.7,1435.02z"/>
		<path class="st0" d="M1489.05,1444.13c2.06,16.2,16.89,29.65,34.26,32.6c17.73,3.01,32.3-4.14,46.48-13.41
			c0.82,0.45,1.64,0.89,2.46,1.34c-1.35,4.01-1.97,8.5-4.18,11.97c-16.41,25.76-36.67,35.71-63,30.09
			c-27.59-5.89-41.4-25.79-47.55-51.39c-9.95-41.46,16.21-84.75,57.59-95.27c8.73-2.22,18.83-2.31,27.59-0.32
			c13.36,3.05,23.04,12.3,26.31,26.03c3.46,14.49-3.14,26.26-13.82,35.16c-17.21,14.34-37.82,20.73-59.91,22.69
			C1493.22,1443.83,1491.14,1443.97,1489.05,1444.13z M1485.49,1421.38c15.69,3.92,30.06,6.01,43.13-4.73
			c6.53-5.36,12.81-10.59,9.93-20.36c-2.07-7.02-11.73-14.56-20.45-13.89c-6.19,0.48-13.01,2.87-18.03,6.5
			C1489.51,1396.52,1487.05,1408.61,1485.49,1421.38z"/>
		<path class="st0" d="M1588.47,1456.01c4.11,4.96,7.39,9.29,11.06,13.26c9.93,10.73,22.69,13.56,36.38,11.05
			c12.24-2.24,15.74-13.7,6.63-22.2c-5.1-4.75-12.23-7.4-18.62-10.64c-9.38-4.77-19.53-8.3-28.27-14
			c-20.42-13.31-23.8-33.96-9.83-53.95c13.51-19.33,40.52-29.71,63.07-24.25c10.82,2.62,17.7,9.47,19.26,20.33
			c1.42,9.87-3.67,17.19-13.74,23.93c-2.26-3.04-4.27-6.45-6.95-9.21c-7.63-7.87-17.2-10.92-28-10.06
			c-10.82,0.86-16.07,10.61-9.72,19.44c3.33,4.63,8.65,8.38,13.85,10.97c7.22,3.61,15.36,5.32,22.78,8.6
			c29.36,12.97,35.54,42.37,14.22,66.6c-17.4,19.78-42.88,26.43-67.49,17.28c-9.99-3.72-18.81-9.3-19.91-21.17
			C1572.12,1470.45,1579.14,1463.01,1588.47,1456.01z"/>
		<path class="st1" d="M1182.11,1251.57c9.88,0,18.25-0.18,26.61,0.05c10.07,0.28,12.89,5.88,7.3,17.95
			c-10.62,22.9-21.45,45.88-34.04,66.63c-10,16.49-12.44,30.59-3.79,49.36c8.05,17.49,13.21,37.72,21.89,54.45
			c7.09,13.65,17.49,23.93,27.7,37.38c-4.87,14.81-15.54,25.92-30.39,27.34c-13.83,1.32-24.57-7.57-30.91-25.02
			c-8.44-23.25-16.4-46.85-25.43-72.8c-13.94,28.86-32.51,53.36-17.22,94.05c-18.11,0-34.23,0-51.23,0
			c-3.26-12.89,0.71-24.71,6.05-34.9c14.49-27.65,29.3-55.03,44.84-81.52c5.34-9.1,6.11-15.28,1.15-24.77
			c-4.48-8.57-7.79-18.44-11.07-28.11c-9.5-28.01-21.82-52.9-39.88-71.45c18.16-29.77,50.81-23.81,62.99,11.13
			c7.01,20.1,13.27,40.72,20.65,63.51C1173.55,1310.73,1186.19,1287.57,1182.11,1251.57z"/>
		<path class="st0" d="M1693.22,1456.37c5.16,5.69,9.2,11.54,14.55,15.73c10.65,8.35,22.69,12.81,36.22,7.05
			c8.72-3.71,11.03-11,4.75-18.09c-4.65-5.24-11.03-9.21-17.21-12.77c-8.86-5.1-18.32-9.18-27.39-13.93
			c-29.96-15.7-23.79-48.32-7.76-63.26c15.86-14.79,35.1-19.63,56.28-14.25c10.61,2.7,17.23,10.06,18.59,21.04
			c1.25,10.11-4.92,16.08-14.82,21.76c-0.55-1.24-0.78-3.12-1.85-3.95c-6.05-4.71-11.77-10.29-18.59-13.43
			c-9.95-4.59-21.85-1.58-24.65,4.52c-2.98,6.47,1.39,14.92,12.02,20.82c11.85,6.57,24.35,11.99,36.26,18.47
			c12,6.53,19.03,16.35,18.34,30.8c-1.04,21.75-19.78,45.36-41.32,47.91c-12.75,1.51-26.33-0.51-39.03-3.25
			c-9.89-2.14-17.87-8.93-19.26-20.43C1676.93,1469.35,1684.73,1463.05,1693.22,1456.37z"/>
		<path class="st0" d="M1363.81,1365.21c29.12-8.42,35.7-6.06,42.77,15.04c5.79-4.42,11.25-9.04,17.15-12.99
			c12.41-8.31,24.86-6.51,34.9,4.45c4.29,4.68,5.26,9.54,0.98,14.53c-5.25,6.13-10.81,11.99-16.49,18.25
			c-1.57-1.4-2.36-2.29-3.31-2.92c-6-4.03-12.03-8-18.06-12c-5.38,7.43-14.7,14.52-15.38,22.37c-1.98,22.72-1.09,45.78,0,68.64
			c0.32,6.68,5.09,13.15,8.09,20.37c-10.86,3.8-22.23,3.33-33.21,0.3c-7.21-1.99-7.97-9.18-7.96-15.76
			c0.01-26.89-0.14-53.79,0.24-80.68C1373.72,1391,1372.81,1377.66,1363.81,1365.21z"/>
		<path class="st0" d="M1216.38,1348.3c7.64-10.01,10.83-23.34,24.75-22.87c190.76-0.28,342.23,0,531.83-0.07
			c0,8.05,0,15.15,0,22.94C1547.65,1348.3,1443.45,1348.3,1216.38,1348.3z"/>
	</g>
	<g>
		<path class="st2" d="M1373.34,944.62c-0.12-0.79-0.71-1.49-1.08-2.24c-0.16-0.98-0.33-1.96-0.52-2.93
			c-2.8-15.17-7.55-29.27-14.53-42.13c-7.42-13.69-17.38-25.97-30.18-36.64c-34.32-28.59-73.93-43.76-118.57-43.13
			c-37.02,0.54-71.25,11.41-101.32,33.77c0,0,0,0-0.01,0.01c-0.01,0.01-0.02,0.01-0.03,0.02c-1.24,1.06-40.55,37.59-51.37,63.74
			c-0.18,0.42-0.33,0.84-0.5,1.26c-21.37,55.72-11.55,105.56,29.89,148.98c31.31,32.8,70.47,47.04,114.79,48.8
			c44.08,1.74,84.53-9.29,120.36-35.74C1365.75,1044.79,1382.16,999.71,1373.34,944.62z"/>
		<g>
			<path class="st2" d="M1512.99,829.57c-0.06-0.86-0.13-1.72-0.21-2.57c-0.09-0.91-0.18-1.83-0.28-2.75
				c-0.09-0.78-0.18-1.55-0.28-2.33c-3.22-24.37-13.31-46.17-29.27-65.42c-0.55-0.8-1.11-1.6-1.68-2.38
				c-12.07-16.7-27.64-29.46-45.83-39.07c-61.52-32.38-151.24-24.52-203.02,26.31c-9.11,8.89-17.52,18.28-24.38,28.65
				c-0.81,1.21-1.57,2.47-2.38,3.73c-1.12,1.89-2.25,3.77-3.28,5.7c-0.36,0.63-0.67,1.3-1.04,1.98c-0.63,1.3-1.3,2.61-1.93,4
				c-0.32,0.63-0.64,1.3-0.9,1.98c-0.13,0.3-0.26,0.6-0.39,0.91c-0.26,0.62-0.51,1.23-0.76,1.85c-0.01,0.01-0.01,0.03-0.01,0.04
				c-2.63,7.36,2.63,8.38,8.65,8.52h0.04c0.73-0.02,1.45-0.04,2.17-0.05h2.92c13.78,0,27.26,1.4,40.37,4.13
				c-0.31-0.45-0.58-0.9-0.77-1.34c-0.13-0.28-0.22-0.59-0.31-0.9c-0.05-0.09-0.09-0.18-0.09-0.28c-0.14-0.4-0.18-0.76-0.18-1.17
				c0-0.22,0-0.49,0.05-0.72c0.81-4.89,3.77-9.43,9.03-9.66c5.66-0.18,10.15,2.79,10.55,8.99c0,0.63-0.05,1.21-0.14,1.79
				c-0.04,0.58-0.13,1.17-0.27,1.7c0,0.18-0.05,0.41-0.13,0.58c0,0.18-0.05,0.31-0.14,0.45c-0.09,0.41-0.22,0.76-0.41,1.12
				c0,0.05-0.04,0.05-0.04,0.09c-0.18,0.41-0.41,0.81-0.67,1.17c-0.27,0.41-0.58,0.77-0.94,1.13c-0.27,0.27-0.54,0.49-0.81,0.71
				c25.96,7.64,50.35,20.93,72.89,39.7c20.93,17.42,35.92,39.38,44.82,65.47c1.53-0.49,3.1-0.99,4.62-1.53
				c-1.53,0.58-3.1,1.07-4.62,1.53c2.69,7.81,4.8,15.99,6.37,24.52c0.67,1.44,1.3,3.28,1.66,5.44c0.45,2.8,0.84,5.58,1.17,8.33
				c0.92,7.67,1.38,15.16,1.38,22.45v0.05c0,0.35,0,0.7-0.01,1.05v0.06c0.3,10.37,2.78,13.08,12.83,9.75
				c0.18-0.06,0.36-0.12,0.54-0.18c0.01-0.01,0.03-0.01,0.05-0.01C1472.07,961.3,1518.12,901.21,1512.99,829.57z M1324.19,746.82
				c-0.06,0.13-0.12,0.27-0.18,0.4c-0.09,0.21-0.2,0.42-0.32,0.63c-0.05,0.09-0.1,0.18-0.15,0.26c-0.05,0.09-0.1,0.18-0.16,0.27
				c-0.05,0.09-0.11,0.18-0.17,0.28c-0.02,0.03-0.05,0.07-0.07,0.1c-0.12,0.19-0.24,0.37-0.38,0.55c-0.13,0.18-0.27,0.37-0.41,0.54
				c-0.01,0.01-0.02,0.03-0.03,0.04c-0.1,0.13-0.21,0.26-0.33,0.39c-0.14,0.16-0.28,0.31-0.42,0.47c-0.27,0.28-0.54,0.54-0.83,0.79
				c-0.11,0.1-0.22,0.19-0.33,0.28c-0.11,0.09-0.22,0.18-0.34,0.28c-0.12,0.09-0.23,0.18-0.35,0.27c-0.12,0.09-0.24,0.17-0.35,0.26
				c-0.16,0.12-0.32,0.22-0.48,0.32c-0.01,0.01-0.02,0.01-0.03,0.02c-0.31,0.2-0.64,0.39-0.97,0.55c-0.17,0.09-0.34,0.17-0.51,0.25
				c-0.17,0.09-0.34,0.16-0.52,0.23c-0.18,0.07-0.35,0.14-0.52,0.2c-0.18,0.07-0.35,0.12-0.52,0.17c-1,0.31-2.02,0.46-3.01,0.42
				c-0.66-0.03-1.3-0.1-1.91-0.21c-0.32-0.05-0.64-0.11-0.94-0.19c-0.11-0.03-0.22-0.05-0.32-0.08c-0.11-0.02-0.22-0.05-0.32-0.09
				c-0.1-0.03-0.2-0.05-0.29-0.09c-0.02,0-0.04-0.01-0.05-0.01c-0.09-0.03-0.17-0.05-0.26-0.09c-0.12-0.04-0.24-0.08-0.36-0.13
				c-0.13-0.05-0.26-0.09-0.39-0.15c-0.13-0.05-0.26-0.1-0.39-0.16c-0.33-0.16-0.65-0.32-0.96-0.5c-0.31-0.18-0.6-0.37-0.88-0.58
				c-0.42-0.31-0.81-0.65-1.18-1.02c-0.24-0.24-0.47-0.5-0.68-0.77c-0.14-0.18-0.28-0.36-0.41-0.56c-0.09-0.13-0.18-0.27-0.27-0.41
				c-0.04-0.07-0.08-0.13-0.12-0.2c-0.07-0.12-0.14-0.24-0.2-0.37c-0.18-0.34-0.35-0.71-0.49-1.08c-0.03-0.08-0.07-0.16-0.09-0.25
				c-0.05-0.12-0.09-0.26-0.13-0.39c-0.03-0.09-0.05-0.17-0.08-0.26c-0.06-0.19-0.11-0.39-0.16-0.58c-0.15-0.62-0.25-1.28-0.31-1.96
				c-0.04-0.54-0.05-1.09-0.04-1.66c0.09-3.11,1.11-5.59,2.94-7.3c0.26-0.24,0.54-0.47,0.83-0.69c0.68-0.49,1.44-0.9,2.28-1.21
				c0.14-0.05,0.28-0.1,0.42-0.15c0.17-0.06,0.34-0.11,0.51-0.16c0.1-0.03,0.2-0.05,0.31-0.08c0.05-0.01,0.1-0.03,0.16-0.04
				c0.12-0.03,0.24-0.06,0.36-0.08c0.2-0.05,0.39-0.09,0.6-0.11c0.1-0.03,0.22-0.04,0.33-0.05c0.16-0.03,0.31-0.05,0.47-0.06
				c0.19-0.03,0.39-0.04,0.6-0.05c0.59-0.05,1.2-0.06,1.83-0.04c1.16,0.03,2.25,0.17,3.27,0.41c0.17,0.04,0.33,0.08,0.5,0.12
				c0.19,0.05,0.38,0.1,0.56,0.16c0.19,0.06,0.37,0.12,0.55,0.18c0.34,0.12,0.67,0.25,0.98,0.39c0.28,0.12,0.55,0.26,0.81,0.4
				c0.09,0.05,0.17,0.09,0.26,0.14c0.27,0.15,0.53,0.31,0.78,0.49c0.08,0.05,0.16,0.11,0.24,0.17c0.16,0.12,0.33,0.25,0.48,0.37
				c0.05,0.03,0.09,0.07,0.13,0.11c0.12,0.1,0.23,0.2,0.34,0.31c0.67,0.63,1.24,1.35,1.69,2.14c0.1,0.16,0.19,0.34,0.27,0.52
				c0.1,0.19,0.19,0.39,0.26,0.59c0.05,0.13,0.1,0.27,0.15,0.41c0.36,1.03,0.53,2.16,0.5,3.36c-0.01,1.03-0.22,2.06-0.58,3.06
				C1324.33,746.49,1324.26,746.66,1324.19,746.82z M1368.49,819.52c-0.01,0.06-0.03,0.12-0.04,0.18c-0.07,0.36-0.15,0.71-0.24,1.06
				c-0.05,0.2-0.1,0.39-0.16,0.58c-0.06,0.19-0.12,0.37-0.19,0.56c-0.02,0.08-0.05,0.15-0.07,0.23c-0.02,0.09-0.05,0.16-0.09,0.24
				c-0.03,0.08-0.07,0.16-0.1,0.24c-0.06,0.16-0.13,0.33-0.2,0.48c-0.02,0.04-0.05,0.08-0.08,0.11c-0.13,0.27-0.27,0.49-0.4,0.76
				c0.01,0.01,0.02,0.02,0.02,0.03c0,0.03-0.02,0.05-0.05,0.08l-0.01,0.01l-0.02,0.02c-0.01,0.03-0.02,0.05-0.04,0.09
				c-0.03,0.05-0.05,0.11-0.1,0.17c-0.01,0.03-0.03,0.05-0.05,0.08c-0.07,0.11-0.14,0.23-0.22,0.34c-0.03,0.05-0.06,0.09-0.09,0.13
				c-0.01,0.01-0.01,0.02-0.02,0.03c-0.12,0.17-0.24,0.33-0.37,0.49c-0.05,0.06-0.09,0.12-0.14,0.17c-0.1,0.12-0.2,0.25-0.31,0.37
				c-0.06,0.07-0.12,0.14-0.2,0.22c-0.06,0.07-0.11,0.13-0.17,0.17c-0.01,0.01-0.02,0.03-0.04,0.04c-0.02,0.02-0.04,0.03-0.06,0.05
				c-0.12,0.12-0.25,0.25-0.38,0.37c-0.11,0.1-0.22,0.2-0.34,0.29c-0.11,0.1-0.23,0.19-0.35,0.28c-0.18,0.14-0.36,0.28-0.54,0.41
				c-0.2,0.12-0.41,0.25-0.61,0.36c-0.41,0.24-0.84,0.47-1.28,0.66c-0.11,0.05-0.23,0.1-0.35,0.14c-0.1,0.05-0.2,0.09-0.31,0.14
				c-0.04,0.01-0.08,0.03-0.12,0.05c-0.28,0.12-0.58,0.22-0.87,0.31c-0.41,0.13-0.76,0.22-1.17,0.31c-0.29,0.08-0.63,0.16-0.97,0.21
				c-0.02,0.01-0.05,0.01-0.07,0.01c-0.51,0.12-1.07,0.22-1.66,0.26c-0.04,0-0.09,0.01-0.12,0.01c-0.45,0.08-0.96,0.12-1.48,0.13
				h-0.14c-0.18,0.01-0.36,0.02-0.55,0.03c-0.19,0.01-0.39,0.02-0.58,0.03c-0.37,0.01-0.74,0.03-1.11,0.03h-0.63
				c-2.7-0.05-5.17-0.52-7.36-1.36c-0.2-0.07-0.39-0.15-0.58-0.24c-0.15-0.06-0.3-0.12-0.45-0.19c-0.05-0.02-0.09-0.04-0.14-0.07
				c-0.18-0.09-0.37-0.17-0.54-0.26c-0.18-0.09-0.37-0.18-0.54-0.28c-0.18-0.1-0.35-0.2-0.52-0.3c-0.52-0.31-1.02-0.64-1.49-1
				c-3.47-2.62-5.69-6.5-6.22-11.21c-0.02-0.17-0.04-0.35-0.05-0.52c-0.06-0.7-0.09-1.41-0.07-2.15v-0.02
				c0-0.58,0.05-1.17,0.09-1.71c0.09-0.98,0.27-1.93,0.54-2.82c0.03-0.1,0.05-0.19,0.08-0.28c0.06-0.24,0.14-0.48,0.23-0.71
				c0.08-0.24,0.17-0.47,0.26-0.69c0.1-0.25,0.21-0.48,0.32-0.73c0.01-0.01,0.01-0.01,0.01-0.03c0.09-0.18,0.18-0.37,0.28-0.54
				c0.05-0.09,0.1-0.18,0.16-0.27c0.01-0.03,0.03-0.06,0.05-0.09c0.12-0.18,0.23-0.37,0.35-0.55c0.15-0.24,0.31-0.47,0.5-0.69
				c0.28-0.36,0.59-0.71,0.91-1.03c0.17-0.17,0.34-0.32,0.53-0.47c0.21-0.19,0.41-0.38,0.64-0.56c0.03-0.02,0.06-0.05,0.09-0.07
				c0.16-0.12,0.32-0.25,0.49-0.36c0.38-0.26,0.79-0.51,1.23-0.73c0.11-0.06,0.22-0.12,0.34-0.17c0.27-0.13,0.56-0.26,0.84-0.38
				c0.06-0.02,0.13-0.05,0.19-0.07c0.22-0.09,0.43-0.17,0.66-0.25c0.02-0.01,0.04-0.01,0.05-0.02c0.01,0,0.03-0.01,0.04-0.01
				c0.01,0,0.01,0,0.02,0c0.72-0.25,1.49-0.44,2.29-0.61c0.85-0.18,1.76-0.31,2.7-0.4c0.9-0.09,1.83-0.14,2.82-0.14h0.85
				c0.01,0,0.01,0,0.01,0c0.29,0,0.58,0.01,0.87,0.03c0.02,0,0.04,0.01,0.06,0c0.27,0.03,0.52,0.06,0.77,0.1
				c0.18-0.05,0.36,0,0.54,0.04c0.63,0.05,1.22,0.14,1.85,0.23c1.17,0.22,2.29,0.49,3.32,0.9c0.11,0.02,0.21,0.06,0.31,0.09
				c0.1,0.04,0.19,0.09,0.28,0.13c0.27,0.1,0.54,0.2,0.81,0.32c0.09,0.04,0.18,0.09,0.27,0.13c0.52,0.25,1.02,0.5,1.48,0.79
				c0.12,0.07,0.25,0.15,0.37,0.24c0.13,0.08,0.26,0.17,0.39,0.26c0.19,0.13,0.38,0.27,0.55,0.42c0.11,0.08,0.22,0.16,0.33,0.24
				c0.21,0.16,0.41,0.33,0.6,0.51c0.1,0.09,0.19,0.18,0.28,0.29c1.93,1.79,3.28,4.13,4.04,6.87c0.02,0.05,0.03,0.09,0.05,0.14
				c0.01,0.02,0.01,0.04,0.01,0.05c0.11,0.35,0.2,0.74,0.26,1.12c0.01,0,0.01,0.01,0,0.01c0.02,0.12,0.03,0.26,0.05,0.38
				c0.08,0.39,0.14,0.79,0.2,1.21c0.01,0.03,0.01,0.07,0.01,0.1c0.12,0.96,0.18,1.97,0.14,3.01
				C1368.79,817.32,1368.71,818.48,1368.49,819.52z M1426.15,801.55c0.03-0.2,0.08-0.39,0.14-0.57c0.09-0.37,0.22-0.75,0.37-1.11
				c0.06-0.18,0.14-0.35,0.22-0.53c0.07-0.18,0.16-0.35,0.26-0.52c0.08-0.18,0.18-0.35,0.29-0.52c0.1-0.16,0.2-0.33,0.31-0.5
				c0.1-0.16,0.21-0.33,0.33-0.48c0.11-0.16,0.23-0.31,0.36-0.47c0.12-0.16,0.25-0.31,0.39-0.46c0.13-0.15,0.26-0.29,0.41-0.44
				c0.22-0.23,0.45-0.45,0.69-0.66c0.66-0.59,1.4-1.12,2.19-1.58c0.18-0.1,0.36-0.21,0.54-0.3c0.55-0.29,1.13-0.56,1.72-0.77
				c0.16-0.06,0.33-0.12,0.5-0.17c0.44-0.15,0.89-0.28,1.34-0.38c0.21-0.05,0.42-0.09,0.64-0.13c0.43-0.08,0.86-0.14,1.3-0.18
				c0.52-0.05,1.03-0.07,1.56-0.07c0.48,0.01,0.96,0.04,1.42,0.09c0.24,0.03,0.47,0.05,0.69,0.09c0.23,0.03,0.45,0.07,0.67,0.11
				c0.23,0.04,0.45,0.09,0.67,0.14c0.22,0.05,0.43,0.1,0.64,0.16c0.58,0.16,1.14,0.37,1.68,0.6c0.15,0.06,0.29,0.12,0.43,0.2
				c0.86,0.4,1.64,0.88,2.35,1.45c0.31,0.25,0.62,0.51,0.9,0.79c0.29,0.28,0.56,0.57,0.81,0.88c0.12,0.14,0.24,0.29,0.35,0.45
				c0.14,0.18,0.28,0.37,0.4,0.57c0.1,0.15,0.2,0.3,0.29,0.46c0.1,0.17,0.2,0.35,0.29,0.53c0.1,0.18,0.18,0.36,0.27,0.54
				c0.09,0.19,0.17,0.38,0.25,0.57c0.43,1.08,0.73,2.25,0.86,3.5c0.01,0.12,0.03,0.25,0.03,0.37c0.01,0.15,0.03,0.31,0.03,0.47
				c0.01,0.23,0.02,0.45,0.02,0.68v0.31c0,0.21-0.01,0.43-0.03,0.63c-0.01,0.21-0.03,0.41-0.06,0.62c-0.01,0.14-0.03,0.29-0.06,0.43
				c0,0.01,0,0.02-0.01,0.03c-0.02,0.13-0.05,0.26-0.07,0.39c-0.03,0.13-0.05,0.26-0.09,0.39c-0.09,0.39-0.2,0.77-0.33,1.15
				c-0.06,0.18-0.12,0.36-0.2,0.53c-0.33,0.83-0.75,1.6-1.25,2.33c-0.12,0.18-0.26,0.35-0.39,0.52c-0.15,0.2-0.31,0.39-0.48,0.58
				c-0.16,0.19-0.33,0.38-0.51,0.56c-0.1,0.11-0.22,0.22-0.33,0.32c-0.11,0.11-0.23,0.22-0.34,0.31c-0.14,0.13-0.28,0.25-0.43,0.36
				c-0.12,0.1-0.24,0.2-0.37,0.29c-0.46,0.34-0.94,0.66-1.43,0.94c-0.36,0.2-0.73,0.39-1.11,0.56c0,0,0,0-0.01,0
				c-0.38,0.18-0.77,0.33-1.17,0.47c-0.21,0.07-0.43,0.14-0.65,0.2c-0.2,0.06-0.39,0.11-0.6,0.16c-0.19,0.05-0.38,0.09-0.57,0.13
				c-0.05,0.01-0.11,0.03-0.16,0.03c-0.18,0.03-0.36,0.07-0.55,0.09c-0.22,0.03-0.44,0.07-0.66,0.09c-0.44,0.05-0.89,0.07-1.35,0.08
				c-0.15,0-0.29,0-0.45-0.01c-3.17-0.14-6.68-2.23-9.29-5.03c-0.29-0.3-0.55-0.6-0.81-0.92c-0.1-0.12-0.2-0.24-0.29-0.37
				c-0.05-0.06-0.1-0.12-0.14-0.18c-0.27-0.36-0.53-0.73-0.77-1.11c-0.59-0.93-1.06-1.89-1.4-2.86c-0.37-1.05-0.56-2.08-0.52-3.09
				C1425.94,802.71,1426.02,802.12,1426.15,801.55z M1412.71,857.69c0.09,0.02,0.18,0.05,0.26,0.07c0.09,0.03,0.18,0.06,0.26,0.09
				c0.1,0.03,0.2,0.07,0.29,0.1c0.05,0.05,0.09,0.05,0.09,0.05c0.16,0.07,0.31,0.13,0.46,0.2c0.07,0.04,0.14,0.08,0.21,0.12
				c0.07,0.04,0.12,0.08,0.18,0.12c0.01,0,0.01,0,0.02,0.01c0.01-0.01,0.01,0,0.02,0.01c0.01,0.01,0.01,0.02,0.01,0.03
				c0.23,0.14,0.45,0.31,0.63,0.5c0.08,0.06,0.15,0.11,0.22,0.18c0.09,0.1,0.2,0.18,0.28,0.29c0.1,0.12,0.19,0.26,0.29,0.39
				c0.04,0.06,0.08,0.12,0.11,0.18c0.2,0.27,0.35,0.54,0.5,0.8c0.07,0.12,0.14,0.24,0.2,0.37c0.07,0.15,0.12,0.3,0.18,0.45
				c0.06,0.15,0.11,0.31,0.16,0.47c0.05,0.16,0.1,0.32,0.14,0.48c0.05,0.17,0.09,0.33,0.12,0.5c0.01,0.01,0.01,0.01,0.01,0.03
				c0.09,0.31,0.14,0.67,0.18,1.03c0,0.72-0.05,1.41-0.14,2.06c-0.05,0.33-0.1,0.66-0.18,0.96c-0.03,0.16-0.07,0.31-0.12,0.46
				c-0.04,0.14-0.08,0.27-0.12,0.4c-0.03,0.08-0.05,0.16-0.09,0.23c-0.03,0.11-0.08,0.22-0.12,0.31c-0.13,0.31-0.28,0.6-0.45,0.87
				c0,0.01-0.01,0.03-0.02,0.04c-0.1,0.17-0.22,0.33-0.34,0.49c-0.12,0.17-0.26,0.33-0.41,0.47c-0.07,0.07-0.14,0.14-0.22,0.22
				c-0.15,0.14-0.31,0.27-0.48,0.38c-0.09,0.06-0.17,0.12-0.26,0.17c-0.2,0.12-0.41,0.23-0.64,0.32c-0.11,0.05-0.23,0.09-0.35,0.13
				c-0.23,0.08-0.48,0.13-0.73,0.18c-0.19,0.03-0.39,0.06-0.59,0.08c0,0,0,0-0.01,0c-0.09,0.01-0.17,0.02-0.26,0.02
				c-0.13,0.01-0.26,0.01-0.39,0.01c-0.45,0-0.94,0-1.4-0.09c-0.45-0.05-0.85-0.14-1.26-0.27c-0.22-0.05-0.45-0.14-0.67-0.22
				c-0.04,0.04-0.09,0.04-0.13-0.05c-0.51-0.17-1-0.4-1.44-0.69c-0.04-0.03-0.07-0.05-0.1-0.07c-0.47-0.31-0.88-0.7-1.24-1.17
				c-0.27-0.36-0.5-0.75-0.69-1.19c-0.06-0.11-0.1-0.22-0.14-0.34c-0.05-0.12-0.09-0.24-0.13-0.35c-0.08-0.24-0.14-0.49-0.2-0.76
				c-0.05-0.36-0.12-0.72-0.15-1.1c-0.01-0.07-0.01-0.13-0.01-0.19c-0.01-0.14-0.01-0.28-0.01-0.42c0-0.07-0.01-0.14-0.01-0.21
				c0-0.14,0-0.28,0.01-0.42c0.01-0.12,0.01-0.23,0.02-0.33c0.01-0.12,0.01-0.24,0.03-0.36c0.02-0.2,0.05-0.4,0.08-0.59
				c0.01-0.04,0.01-0.08,0.02-0.11c0.01-0.1,0.04-0.21,0.06-0.31c0.01-0.05,0.02-0.09,0.03-0.13c0.03-0.12,0.05-0.23,0.09-0.34
				c0.02-0.08,0.04-0.16,0.07-0.24c0.03-0.12,0.07-0.24,0.12-0.35c0.04-0.12,0.09-0.23,0.13-0.34c0.05-0.1,0.09-0.22,0.14-0.32
				c0.05-0.1,0.1-0.2,0.15-0.29c0.07-0.12,0.13-0.23,0.2-0.34c0.07-0.11,0.14-0.22,0.22-0.32c0.07-0.1,0.15-0.21,0.24-0.31
				c0.09-0.1,0.16-0.2,0.26-0.29c0.03-0.04,0.07-0.07,0.1-0.1c0.09-0.09,0.18-0.18,0.28-0.26c0.37-0.33,0.79-0.61,1.25-0.83
				c0.1-0.05,0.22-0.1,0.33-0.15c0.11-0.05,0.22-0.1,0.34-0.14c0.58-0.21,1.22-0.35,1.93-0.41c0.85-0.09,1.62-0.05,2.33,0.09
				c0.1,0.01,0.2,0.03,0.29,0.05C1412.7,857.68,1412.71,857.68,1412.71,857.69z M1388.08,751.81c-0.12-0.14-0.24-0.29-0.35-0.44
				c-0.12-0.15-0.23-0.3-0.33-0.45c-0.11-0.15-0.21-0.3-0.3-0.46c-0.1-0.16-0.2-0.31-0.28-0.47c-0.18-0.32-0.34-0.64-0.48-0.97
				c-0.07-0.17-0.14-0.33-0.2-0.5c-0.39-1.03-0.6-2.11-0.6-3.19c0.02-1.18,0.24-2.35,0.64-3.47c0.13-0.37,0.28-0.74,0.45-1.1
				c0.07-0.15,0.13-0.29,0.22-0.44c0.01-0.05,0.04-0.09,0.06-0.12c0.08-0.16,0.17-0.32,0.26-0.48c0.25-0.44,0.53-0.86,0.83-1.26
				c0.13-0.18,0.27-0.35,0.41-0.52c0.18-0.23,0.37-0.45,0.56-0.66c2.34-2.52,5.6-4.2,8.96-4.2c0.91-0.01,1.81,0.11,2.7,0.33
				c0.12,0.03,0.24,0.07,0.37,0.1c0.98,0.28,1.93,0.69,2.82,1.21c4.01,2.3,7,6.71,6.91,11.16c-0.05,1.67-0.37,3.18-0.97,4.5
				c-0.14,0.33-0.31,0.65-0.49,0.96c-0.27,0.46-0.57,0.89-0.91,1.3c-0.23,0.27-0.47,0.53-0.72,0.77c-0.14,0.13-0.28,0.26-0.42,0.38
				c-0.54,0.46-1.14,0.86-1.79,1.22c-2.08,1.13-4.71,1.69-7.78,1.61h-0.02c-0.2-0.01-0.4-0.02-0.6-0.03
				c-0.39-0.03-0.77-0.08-1.15-0.15C1392.83,755.87,1390,754.13,1388.08,751.81z"/>
			<g>
				<path class="st3" d="M1407.93,983.13c-0.01,0-0.03,0.01-0.05,0.01c-0.18,0.07-0.37,0.12-0.54,0.18
					c-10.05,3.33-12.53,0.62-12.83-9.75v-0.06c0.01-0.35,0.01-0.7,0.01-1.05v-0.05c0-7.3-0.46-14.78-1.38-22.45
					c-0.33-2.75-0.72-5.53-1.17-8.33c-0.36-2.16-0.99-4-1.66-5.44c-1.57-8.53-3.68-16.7-6.37-24.52c1.53-0.45,3.1-0.94,4.62-1.53
					c1.03-0.36,2.11-0.72,3.14-1.12c1.26-0.45,2.52-0.9,3.73-1.44c1.17-0.4,2.29-0.9,3.41-1.39c1.17-0.45,2.33-0.94,3.5-1.49
					c2.33-1.03,4.67-2.11,7-3.28c2.11-1.03,4.22-2.11,6.33-3.24c1.62-0.85,3.23-1.75,4.85-2.65c26.31-14.91,44.82-36.51,55.46-64.71
					c8.08-21.47,10.95-43.64,6.37-66.37c-0.01-0.06-0.03-0.12-0.04-0.2c-0.13-0.69-0.29-1.78-0.45-3.08
					c-0.26-2.05-0.51-4.63-0.61-7.05c0.57,0.78,1.13,1.58,1.68,2.38c15.96,19.25,26.04,41.04,29.27,65.42
					c0.1,0.77,0.2,1.55,0.28,2.33c0.1,0.92,0.2,1.84,0.28,2.75c0.08,0.85,0.15,1.71,0.21,2.57
					C1518.12,901.21,1472.07,961.3,1407.93,983.13z"/>
				<path class="st3" d="M1351.41,830.45c-10.95-0.19-18.2-7.28-17.95-17.56c0.23-9.7,6.28-14.66,17.55-14.39
					c11.41,0.27,18.08,6.87,17.81,17.61C1368.56,826.06,1362.99,830.65,1351.41,830.45z"/>
				<path class="st3" d="M1439.69,791.73c7.89,0.12,13.19,5.36,13.08,12.94c-0.1,6.75-5.88,12.09-13.2,12.2
					c-6.16,0.1-13.82-7.54-13.62-13.58C1426.15,796.9,1432.42,791.62,1439.69,791.73z"/>
				<path class="st3" d="M1410.72,745.89c-0.16,6.84-5.19,10.96-13.08,10.72c-6.31-0.19-12.14-5.63-12.08-11.27
					c0.07-6.31,6.05-12.26,12.36-12.28C1404.49,733.02,1410.87,739.42,1410.72,745.89z"/>
				<path class="st3" d="M1301.57,742.97c0.16-6.49,4.49-10.2,11.63-9.99c7.14,0.22,11.89,4.36,11.8,10.28
					c-0.09,5.77-6.43,11.73-12.21,11.47C1305.62,754.42,1301.39,749.98,1301.57,742.97z"/>
				<path class="st3" d="M1269.78,797.74c0,0.63-0.05,1.21-0.14,1.8c-0.04,0.58-0.13,1.17-0.27,1.71c0,0.18-0.04,0.4-0.13,0.58
					c0,0.18-0.05,0.31-0.13,0.45c-0.09,0.4-0.23,0.76-0.41,1.12c0,0.04-0.04,0.04-0.04,0.09c-0.18,0.4-0.41,0.81-0.67,1.17
					c-0.27,0.4-0.59,0.76-0.94,1.12c-0.27,0.27-0.54,0.49-0.81,0.72h-0.05c-4.85-1.44-9.7-2.65-14.64-3.68h-0.05
					c-0.31-0.45-0.58-0.9-0.76-1.35c-0.13-0.27-0.22-0.58-0.31-0.9c-0.05-0.09-0.09-0.18-0.09-0.27c-0.13-0.4-0.18-0.76-0.18-1.17
					c0-0.22,0-0.49,0.05-0.72c0.81-4.9,3.77-9.43,9.03-9.66C1264.88,788.57,1269.37,791.54,1269.78,797.74z"/>
				<path class="st3" d="M1417.51,864.14c0.03,4.46-1.74,7.82-5.91,7.85c-3.95,0.02-7.52-1.97-7.6-6.95
					c-0.06-4.18,1.98-7.11,6.07-7.51C1414.69,857.08,1417.01,860.03,1417.51,864.14z"/>
			</g>
		</g>
		<g>
			<g>
				<path class="st2" d="M845.25,760.76c-1.19-1.71-4.24-5.98-3.74-7.5c-3.63-5.02-8.31-9-12.88-13.12
					c-53.62-48.21-145.01-54.24-206.09-19.95c-46.06,25.88-74.78,63.85-77.85,118.34c9.47,6.89,18.37,14.44,27.29,23.39
					c2.72-14.58,10.11-25.14,22.74-31.39c4.42-2.18,2.55-4.7,1.76-7.54c-3.02-10.83-5.27-21.7-1.88-32.91
					c1.81-6.01,4.48-11.47,9.35-15.53c5.29-4.4,11.2-6.1,17.88-3.17c7.86,3.44,8.31,7.12,1.46,12.21
					c-11.05,8.2-13.64,29.83-4.92,40.02c1.07,1.26,2.22,1.48,3.58,1.65c19.43,2.4,30.28,15.37,38.15,31.57
					c6.25,12.86,8.61,27,12.24,40.72c26.53,1.41,52.45-2.43,76.39-13.72c42.77-20.19,77.62-48.87,93.66-95.52
					C845.87,778.14,852.01,770.56,845.25,760.76z M665.58,753.28c-6.43,0.27-9.84-3.9-9.89-9.15c-0.07-5.51,3.54-10.66,9.61-10.75
					c5.63-0.07,10.13,3.07,10.06,9.91C675.3,749.84,671.88,752.95,665.58,753.28z M699.2,818.7c-7.2,0.15-13.65-5.36-13.72-11.72
					c-0.05-5.73,5.74-11.45,11.91-11.79c6.73-0.35,13.28,5.59,13.23,12.01C710.55,814.19,706.24,818.54,699.2,818.7z M724.93,870.69
					c-6,0.07-6.78-4.52-7.67-8.5c0-5.91,3.56-8.93,8.16-9.2c5.07-0.3,8.41,3.73,8.23,8.51
					C733.46,866.32,730.86,870.62,724.93,870.69z M756.77,776.66c-7.94-0.03-14.26-5.86-14.34-13.22c-0.1-8.46,5.81-13.75,15.3-13.7
					c8.4,0.05,14.63,5.41,14.76,12.7C772.62,769.79,765.01,776.69,756.77,776.66z M785.7,842.04c-6.1,0.5-8.08-3.59-8.09-9.67
					c-0.22-5.16,2.47-9.66,8.06-9.98c5.66-0.32,8.87,3.83,8.88,9.69C794.57,837.96,791.36,841.57,785.7,842.04z"/>
				<g>
					<path class="st3" d="M867.63,825.23c-33.14,8.7-61.87,25.16-86.2,49.28c-24.58,24.37-38.41,51.98-43.59,85.63
						c-0.6,3.86-1.15,6.31-2.29,7.79c-0.07,0.09-0.13,0.16-0.2,0.24c-0.01,0-0.01,0.01-0.01,0.01c-0.37,0.29-0.94,0.69-1.68,1.17
						c-5.45,3.53-14.84,6.92-25.32,4.3c-0.67-0.17-0.81-1.14-1.18-1.75c-18.73-21.39-30.13-46.28-34.82-74.35
						c26.54,1.41,52.45-2.44,76.4-13.74c42.77-20.17,77.63-48.86,93.65-95.51c3.49-10.16-1.39-33.52-0.88-35.04
						c17.18,18.05,27.37,39.74,33.43,63.66C876.66,823.73,871.93,824.1,867.63,825.23z"/>
					<g>
						<path class="st3" d="M756.77,776.66c-7.95-0.04-14.26-5.86-14.35-13.22c-0.1-8.45,5.81-13.74,15.31-13.69
							c8.38,0.04,14.61,5.4,14.75,12.68C772.62,769.8,765.01,776.7,756.77,776.66z"/>
						<path class="st3" d="M699.2,818.69c-7.21,0.15-13.65-5.35-13.72-11.72c-0.06-5.72,5.74-11.46,11.91-11.79
							c6.72-0.36,13.27,5.59,13.22,12C710.55,814.2,706.24,818.54,699.2,818.69z"/>
						<path class="st3" d="M665.58,753.29c-6.43,0.26-9.84-3.9-9.9-9.16c-0.06-5.52,3.54-10.67,9.61-10.74
							c5.63-0.07,10.12,3.07,10.06,9.9C675.31,749.84,671.88,752.95,665.58,753.29z"/>
						<path class="st3" d="M777.61,832.36c-0.22-5.15,2.46-9.65,8.06-9.97c5.65-0.33,8.86,3.82,8.88,9.68
							c0.02,5.88-3.19,9.5-8.85,9.96C779.61,842.54,777.63,838.44,777.61,832.36z"/>
						<path class="st3" d="M717.25,862.2c0.01-5.92,3.56-8.94,8.16-9.22c5.07-0.3,8.42,3.74,8.23,8.52
							c-0.19,4.82-2.79,9.12-8.72,9.19C718.94,870.76,718.14,866.16,717.25,862.2z"/>
					</g>
				</g>
			</g>
			<g>
				<path class="st0" d="M750.92,1055.28c-32.78,1.81-62.03-9.12-89.26-25.91c-33.22-20.5-59-48.2-76.06-83.6
					c-1.49-3.09-3.46-4.25-7.02-4.58c-14.24-1.31-28.03-4.84-41.09-10.58c-31.89-13.99-46.74-40.2-50.06-73.4
					c-1.78-17.77-0.6-35.75,3.22-53.35c0.91-4.23,1.7-9.49,6.95-10.29c5.56-0.86,9.92,2.08,13.07,6.9
					c5.12,7.89,26.82,34.58,34.01,38.07c9.47,6.89,18.37,14.44,27.29,23.39c2.72-14.58,10.11-25.14,22.74-31.39
					c4.42-2.18,2.55-4.7,1.76-7.54c-3.02-10.83-5.27-21.7-1.88-32.91c1.81-6.01,4.48-11.47,9.35-15.53c5.29-4.4,11.2-6.1,17.88-3.17
					c7.86,3.44,8.31,7.12,1.46,12.21c-11.05,8.2-13.64,29.83-4.92,40.02c1.07,1.26,2.22,1.48,3.58,1.65
					c19.43,2.4,30.28,15.37,38.15,31.57c6.25,12.86,8.61,27,12.24,40.72c4.8,28.72,16.61,54.09,36.09,75.79
					c4.16,8.26,25.56,26.4,29.57,29.39C738.72,1021.12,743.85,1038.44,750.92,1055.28z"/>
				<path class="st4" d="M573.84,919.29c-1.36,3.12-5.19,1.93-7.56,1.36c-22.8-5.42-42.25-15.51-52.85-38.11
					c-8.5-18.11-11.32-36.83-8.36-57.6c9.17,7.07,14.99,15.69,22.38,22.76c9.33,8.91,20.65,15.2,30.49,23.38
					c8.44,7.01,17.82,13.98,16.07,28.7c-15.15-10.87-29.94-20.69-47.64-24.53c-0.62-0.03-1.18-0.06-1.67-0.09
					c0.16,0.2,0.62,0.62,0.88,0.88c13.81,13.35,27.33,27.03,43.8,37.26C571.63,914.68,575.34,915.85,573.84,919.29z"/>
			</g>
		</g>
		<g>
			<path class="st2" d="M1404.26,676.2c-1.26,4.57-3.15,7.77-8.63,6.39c-0.38-0.1-0.76-0.19-1.14-0.28
				c-19.07-4.59-38.54-2.95-57.87-3.34c-4.05,0.65-8.1,1.29-12.14,1.94c-5.82,0.93-11.63,1.86-17.44,2.78
				c-2.33,0.37-4.64,0.74-6.96,1.11c-0.04-0.07-0.08-0.12-0.1-0.16c0.01,0.02,0.03,0.05,0.04,0.07c0.01,0.03,0.04,0.06,0.06,0.1
				c-30.43,8.44-57.57,23.09-81.91,43.52c-0.44,0.37-0.88,0.73-1.31,1.1c2.51-8.95,5.93-17.02,8.17-25.55
				c0.07-0.28,0.14-0.56,0.21-0.84c3.1-12.4,2.85-24.73,0.91-37.21c0.04-0.01,0.09-0.03,0.12-0.03c0.04-0.01,0.07-0.02,0.1-0.03
				c0.01,0,0.01-0.01,0.02-0.01c0.03-0.01,0.05-0.02,0.05-0.02c-0.04,0.01-0.14,0.03-0.3,0.08c-0.24-0.64-0.47-1.28-0.72-1.92
				c-2.68-7-5.95-13.4-9.73-19.28c-0.59-0.92-1.19-1.82-1.81-2.71c-0.61-0.89-1.24-1.77-1.88-2.64c-1.59-2.17-3.26-4.26-4.99-6.28
				c-1.04-1.21-2.1-2.4-3.2-3.56c-0.73-0.78-1.46-1.55-2.21-2.3c-0.37-0.38-0.75-0.75-1.13-1.13
				c-13.24-13.04-29.54-22.93-47.2-31.39c-14.1-6.77-28.75-12.36-44.16-15.38c-5.69-1.13-6.99-2.77-4.25-8.16
				c24.22-47.71,63.26-74.16,116.06-79.84c49.47-5.35,94.15,7.69,132.92,38.99c16.66,13.45,29.94,30.01,38.46,49.97v0.01
				C1407.73,610.79,1413.54,642.54,1404.26,676.2z"/>
			<g>
				<path class="st3" d="M1404.26,676.2c-1.26,4.57-3.15,7.77-8.63,6.39c-0.38-0.1-0.76-0.19-1.14-0.28
					c-19.07-4.59-38.54-2.95-57.87-3.34c-4.05,0.65-8.1,1.29-12.14,1.94c1.6-1.09,3.3-2.27,5.06-3.49
					c9.38-6.5,20.44-14.35,26.61-19.17c2.86-2.23,5.48-4.59,7.88-7.04c0.01,0,0.01,0,0-0.01c1.34-1.36,2.61-2.76,3.81-4.19
					c0,0,0,0,0-0.01c0.48-0.57,0.96-1.15,1.41-1.72c1.4-1.75,2.69-3.54,3.9-5.37c0.37-0.54,0.71-1.09,1.05-1.64
					c2-3.16,3.75-6.44,5.31-9.82c0.6-1.32,1.18-2.66,1.72-4.01l0.01-0.01c0.54-1.35,1.06-2.72,1.55-4.09c0-0.01,0.01-0.01,0.01-0.01
					c0.48-1.38,0.95-2.78,1.39-4.19c0.43-1.41,0.84-2.83,1.24-4.26c1.36-5.02,2.43-10.19,3.29-15.48c0.1-0.64,0.2-1.27,0.3-1.91
					c0.12-0.75,0.23-1.49,0.34-2.22c0.1-0.69,0.22-1.37,0.33-2.04c0-0.01,0-0.01,0-0.01c0.11-0.68,0.24-1.36,0.36-2.04
					c0.39-2.04,0.85-4.05,1.51-6.03c0.22-0.66,0.45-1.31,0.71-1.96C1407.73,610.79,1413.54,642.54,1404.26,676.2z"/>
				<path class="st3" d="M1300.09,684.8c-0.02-0.03-0.04-0.07-0.07-0.09C1300.03,684.74,1300.06,684.77,1300.09,684.8
					c-30.44,8.45-57.58,23.1-81.92,43.53c-0.44,0.37-0.88,0.73-1.31,1.1c2.51-8.95,5.93-17.02,8.17-25.55
					c0.07-0.28,0.14-0.56,0.21-0.84c3.1-12.4,2.85-24.73,0.91-37.21v-0.01c-0.24-0.64-0.47-1.28-0.72-1.92
					c1.46,0.51,3.39,1.17,5.05,1.76c0.01,0.01,0.02,0.01,0.03,0.01h0.01c1.66,0.58,3.05,1.08,3.45,1.26
					c0.04,0.01,0.07,0.03,0.09,0.04c0.13,0.07,0.26,0.13,0.39,0.2c0.26,0.14,0.51,0.28,0.76,0.42c0.26,0.14,0.51,0.29,0.77,0.45
					c0.33,0.19,0.66,0.39,0.99,0.58c0.3,0.18,0.6,0.35,0.9,0.53c0.21,0.12,0.42,0.24,0.63,0.35c0.09,0.05,0.18,0.1,0.27,0.15
					c0.16,0.09,0.33,0.18,0.5,0.27c0.69,0.35,1.38,0.67,2.1,0.93c1.92,0.69,3.83,1.4,5.74,2.1c0.96,0.35,1.91,0.71,2.87,1.07
					c0.48,0.18,0.96,0.35,1.43,0.53c0.96,0.35,1.91,0.7,2.87,1.05c2.55,0.93,5.1,1.83,7.67,2.66c1.15,0.37,2.3,0.73,3.45,1.07
					c2.57,0.77,5.16,1.45,7.78,2.02c0.5,0.1,1,0.21,1.49,0.31c1.48,0.29,2.97,0.56,4.47,0.76c0.31,0.05,0.62,0.09,0.94,0.12
					c2.72,0.35,5.48,0.54,8.27,0.54c1.07,0,2.14-0.03,3.22-0.09c0.06,0,0.12,0,0.18-0.01c0.5-0.03,1.01-0.07,1.52-0.1
					c0.05-0.01,0.09-0.01,0.14-0.01c0.54-0.05,1.07-0.1,1.61-0.16c0.05-0.01,0.1-0.01,0.16-0.01c0.33-0.03,0.86-0.03,1.54-0.01
					c2.47,0.07,6.84,0.41,10.34,1C1304.72,684.06,1302.41,684.44,1300.09,684.8z"/>
				<path class="st3" d="M1245.97,598.77c-9.22-0.06-16.81-6.41-16.6-13.87c0.18-6.28,7.8-12.83,15.03-12.91
					c8.68-0.11,16.88,6.71,16.92,14.06C1261.37,593.68,1255.16,598.83,1245.97,598.77z"/>
				<path class="st3" d="M1348.67,580.99c0.05,8.83-4.2,12.78-13.69,12.73c-8.87-0.05-14.66-5-14.7-12.56
					c-0.03-6.7,6.99-14.27,13.02-14.05C1343.23,567.48,1348.62,572.35,1348.67,580.99z"/>
				<path class="st3" d="M1193.4,543.41c-7.74,0-12.53-3.81-12.61-10.04c-0.07-5.88,5-10.28,11.79-10.23
					c8.47,0.06,13.49,3.93,13.36,10.32C1205.82,539.98,1201.5,543.41,1193.4,543.41z"/>
				<path class="st3" d="M1299.78,625.6c3.67,0.37,7,1.53,6.91,6.86c-0.09,5.9-5.22,13.5-9.57,12.98c-5.37-0.64-8.39-4.27-8.8-9.58
					C1287.89,630.41,1293.31,625.52,1299.78,625.6z"/>
				<path class="st3" d="M1283.14,527.6c-0.06,4.19-2.38,5.82-6.34,5.67c-4.29-0.16-5.62-2.72-5.45-6.56
					c0.17-3.79,2.36-5.27,5.91-5.27C1281.39,521.45,1283.27,523.56,1283.14,527.6z"/>
			</g>
		</g>
		<g>
			<path class="st2" d="M1141.51,489.38c-8.55-13-19.28-23.98-31.44-33.47c-46.95-36.59-100.21-43.86-157.03-32.44
				c-39.31,7.89-71.69,27.39-95.4,60.22c-6.05,8.36-5.78,8.41,3.48,13.22c31.69,16.46,57.95,38.64,75.07,70.67
				c5.47,10.24,7.94,10.92,19.73,8.56c23.33-4.69,46.82-7.36,70.65-7.52c17.77-0.13,35.25,2.67,53.3,4.25
				c2.4,0.66,5.02,1.16,6.4-2.55c10.93-29.1,30.21-51.93,54.11-71.12C1144.49,495.88,1144.06,493.26,1141.51,489.38z M920.97,474.58
				c-5.16-0.08-8.98-2-8.8-7.56c0.2-6.26,4.16-9.32,10.34-9.34c5.49-0.02,8.03,2.97,8.08,8.25
				C930.55,472.42,926.94,474.68,920.97,474.58z M965.49,524.88c-7.22-0.08-13.4-5.91-13.03-12.29c0.34-5.89,6.36-11.27,12.63-11.23
				c7.83,0.03,14.11,5.56,14.14,12.49C979.28,521.03,974.36,524.98,965.49,524.88z M1014.75,469.36
				c-5.66,0.12-11.32-6.31-11.5-13.08c-0.15-6.2,5.27-12.02,11.22-12.04c6.35-0.03,11.74,5.61,11.82,12.34
				C1026.39,462.99,1020.78,469.21,1014.75,469.36z M1054.26,522.26c-0.34,5.47-2.85,11.2-9.61,12.02
				c-4.84,0.6-10.19-6.3-10.14-10.43c-0.12-8.88,4.32-12.04,10.46-12.19C1051.58,511.49,1054.62,516.75,1054.26,522.26z
				 M1076.98,486.25c-6.23,0.2-10.68-4.06-10.48-10.26c0.22-6.35,3.88-9.42,9.94-10.13c6.13,0.59,10.31,3.54,10.06,9.89
				C1086.27,481.4,1083.77,486.03,1076.98,486.25z"/>
			<g>
				<path class="st3" d="M965.49,524.88c-7.21-0.08-13.39-5.91-13.03-12.29c0.33-5.89,6.37-11.26,12.63-11.24
					c7.83,0.03,14.11,5.57,14.15,12.49C979.28,521.03,974.37,524.97,965.49,524.88z"/>
				<path class="st3" d="M1026.29,456.57c0.09,6.42-5.52,12.64-11.55,12.78c-5.66,0.13-11.32-6.32-11.49-13.08
					c-0.16-6.2,5.27-12.02,11.22-12.04C1020.8,444.21,1026.19,449.84,1026.29,456.57z"/>
				<path class="st3" d="M1034.52,523.86c-0.13-8.89,4.32-12.05,10.46-12.2c6.59-0.16,9.63,5.1,9.29,10.61
					c-0.34,5.46-2.85,11.2-9.6,12.03C1039.82,534.89,1034.46,527.98,1034.52,523.86z"/>
				<path class="st3" d="M1076.45,465.87c6.13,0.58,10.31,3.54,10.05,9.9c-0.23,5.64-2.74,10.27-9.52,10.49
					c-6.23,0.2-10.68-4.07-10.47-10.27C1066.73,469.64,1070.39,466.57,1076.45,465.87z"/>
				<path class="st3" d="M930.6,465.94c-0.06,6.48-3.66,8.75-9.63,8.65c-5.16-0.09-8.97-2-8.8-7.56c0.2-6.25,4.17-9.31,10.35-9.33
					C928.01,457.67,930.54,460.66,930.6,465.94z"/>
			</g>
		</g>
		<g>
			<path class="st5" d="M1197.03,649.28c-9.07-11.63-20.39-20.7-32.96-28.16c-42.44-25.1-89.14-33.46-137.64-34.26
				c-10.37-0.04-20.66,0.54-30.99,1.66c-33.14,3.59-65.56,10.15-95.34,25.55c-18.46,9.61-37.54,18.91-48.86,38.26
				c-5.84,9.97-10.91,20.12-11.14,31.75c-0.27,12.62,5.21,23.62,12.4,33.68c15.18,21.42,36.01,35.7,59.95,45.26
				c63.99,25.64,129.55,28.07,195.97,10.91c32.87-8.49,62.73-22.86,85.99-48.68C1215.26,702.13,1216.25,673.84,1197.03,649.28z
				 M1173.68,719.11c-18.91,19.89-43.16,30.09-69.02,36.78c-24.88,6.47-50.16,10.19-75.98,9.79c-44.37-1.03-87.79-6.33-126.95-29.64
				c-11.81-7.05-22.63-15.4-30.18-27.26c-9.29-14.51-8.98-28.88,0.99-42.89c15.13-21.2,36.64-32.92,60.85-40.42
				c47.51-14.68,95.92-19.94,145.18-11.45c28.07,4.85,55.01,13.47,78.77,29.95c14.59,10.06,26.54,22.09,28.74,41.09
				C1187.6,698.63,1182.75,709.59,1173.68,719.11z"/>
			<path class="st6" d="M1194.65,753.77c-9.84,15.09-16.62,31.34-21.29,48.41c-28.07,5.25-53.93,16.57-77.19,33.77
				c-4.32,2.91-8.4,5.97-12.35,9.2l-5.97,5.16c-5.82,5.31-11.21,11-16.13,17.12c-0.12,0.14-0.23,0.28-0.34,0.42
				c-0.11,0.15-0.22,0.29-0.33,0.42c-2.38,2.83-5.14,2.94-9.07-0.62c-0.12-0.12-0.26-0.23-0.39-0.33c-0.01-0.01-0.01-0.01-0.01-0.01
				c-23.25-21.22-52.85-35.56-88.27-43.62c-21.15-4.81-42.57-6.01-64.13-4.58c-3.1,0.22-4.89,0.49-5.74-3.55
				c-3.77-17.42-9.48-34.26-18.1-50.34c12.89,7.68,26.23,13.97,39.97,19.45c21.55,8.53,43.91,13.92,66.86,16.57
				c68.3,8,133.82,0.58,193.99-35.97C1182.34,761.5,1187.83,758.14,1194.65,753.77z"/>
			<path class="st6" d="M1173.67,719.13c-18.9,19.89-43.16,30.04-69.02,36.73c-24.88,6.47-50.16,10.24-75.98,9.83
				c-44.37-1.03-87.79-6.33-126.9-29.64c-11.85-7.09-22.68-15.4-30.22-27.26c-9.29-14.55-8.98-28.87,1.03-42.88
				c15.09-21.2,36.64-32.96,60.8-40.41c47.51-14.73,95.96-19.98,145.18-11.45c28.07,4.81,55.05,13.47,78.76,29.91
				c14.59,10.1,26.58,22.14,28.74,41.13C1187.63,698.61,1182.74,709.61,1173.67,719.13z"/>
			<path class="st1" d="M1153.8,712.24c-13.84,15.83-32.53,22.18-51.76,27.35c-27.37,7.39-55.47,9.81-83.63,8.28
				c-33.17-1.78-66.05-6.1-96.21-21.65c-6.65-3.43-13.06-7.22-18.67-12.51c-21.36-20.12-15.18-39.23,4.52-54.02
				c22.04-16.55,48.09-22.94,74.68-27.26c72.26-11.61,114.01,2.16,147.36,19.95c10.66,5.7,20.34,12.51,26.97,23.13
				C1165.05,688.34,1163.79,700.79,1153.8,712.24z"/>
			<path class="st3" d="M1031.4,645.87c23.76,0.68,47.32,2.62,68.98,13.62c5.45,2.77,13.71,5.98,10.35,13.6
				c-2.96,6.71-10.84,5.11-17.24,3.05c-17.9-5.76-36.47-7.47-55.07-8.55c-10.31-0.6-20.7,0.25-31.01-0.39
				c-4.08-0.25-10.91,1.07-11.01-5.67c-0.09-6.29,2.95-12.27,10.06-13.67c5.14-1.01,10.3-2.53,15.71-2.04
				C1025.23,646.09,1028.32,645.87,1031.4,645.87z"/>
			<path class="st3" d="M1065.19,696.04c-5.76,0.05-11.1-0.72-11.18-6.72c-0.05-3.89,3.99-6.78,8.33-6.32
				c4.79,0.51,11.27,0.64,11.81,6.74C1074.66,695.48,1068.82,695.57,1065.19,696.04z"/>
		</g>
		<g class="st7">
			<path d="M1251.55,802.81h-0.05c0,0.04,0.05,0.04,0.09,0.09C1251.55,802.86,1251.55,802.86,1251.55,802.81z"/>
		</g>
		<g>
			<path class="st2" d="M920.74,578.38c-13.7-22.1-29.54-42.09-52.06-55.89c-34.22-20.97-71.39-27.52-110.97-23.09
				c-40.08,4.5-74.83,19.85-102.22,49.94c-14.78,16.24-26.52,34.45-32.28,55.99l0.01,0.01c0.74,0.74,1.34,1.51,1.83,2.35
				c-0.5-0.83-1.1-1.6-1.83-2.35c-1.34,3.91-2.97,7.74-3.98,11.74c-6.28,24.85-6.79,49.48,2.48,73.87c2.38,6.29,5.37,8.2,11.88,5.21
				c11.68-5.36,24.37-7.68,36.71-11.02v-0.01h-0.01c0.04-0.62,0.03-1.2-0.03-1.75c0.07,0.55,0.08,1.13,0.04,1.75
				c1.56-0.15,3.12-0.32,4.68-0.5c1.55-0.17,3.1-0.33,4.67-0.5c5.19-0.57,10.38-1.13,15.58-1.53c29.25-2.22,57.79,1.88,85.73,10.49
				c17.17,7.53,34.26,15.23,50.06,26.07c-3.28-13.48-6.64-26.38-6.74-39.85c-0.31,0.13-0.32,0.12,0-0.01
				c0.56-3.29,0.92-6.62,1.7-9.86c6.84-28.16,24.96-47.44,48.9-62.14c13.62-8.36,28.13-14.9,42.99-20.6
				C922.57,584.91,923.75,583.25,920.74,578.38z"/>
			<g>
				<path class="st3" d="M623.21,605.34c1.97,1.99,2.97,4.19,3.63,7.1c5.99,26.06,20.65,46.99,39.88,64.93
					c2.57,2.4,3.78,4.53,3.58,7.78c-12.34,3.34-25.04,5.65-36.72,11.02c-6.51,2.99-9.5,1.08-11.88-5.21
					c-9.27-24.4-8.75-49.03-2.47-73.88C620.25,613.08,621.87,609.25,623.21,605.34z"/>
				<g>
					<path class="st3" d="M769.91,591.97c11.36,0.23,18.18,6.79,17.99,17.3c-0.15,8.3-7.43,14.62-16.84,14.61
						c-9.8,0-18.66-8.52-18.47-17.74C752.76,598.09,760.46,591.78,769.91,591.97z"/>
					<path class="st3" d="M835.05,546.57c8.7,0.07,13.06,3.88,13.21,11.56c0.16,7.85-5.75,13.81-13.61,13.74
						c-7.72-0.07-14.97-6.55-14.7-13.12C820.28,551.19,826.08,546.5,835.05,546.57z"/>
					<path class="st3" d="M763.61,524.77c6.45,0.08,10.8,4.57,10.75,11.07c-0.05,6.11-6.04,12.56-11.37,12.23
						c-5.47-0.33-11.98-7.42-12.02-13.08C750.93,528.8,756.04,524.67,763.61,524.77z"/>
					<path class="st3" d="M695.08,590.44c-8.61-0.19-15.24-6.27-14.36-11.54c0.96-5.77,4.79-9.59,10.68-10.07
						c6.38-0.52,12.75,5.82,12.38,12.1C703.38,587.74,698.97,590.42,695.08,590.44z"/>
					<path class="st3" d="M720.27,647.54c-0.13,5.13-3.15,8.5-8.33,8.05c-4.55-0.39-7.85-3.63-7.83-8.3
						c0.02-4.37,1.89-8.31,7.41-8.25C717.1,639.11,719.48,642.19,720.27,647.54z"/>
				</g>
			</g>
		</g>
		<g>
			<g>
				<path class="st2" d="M1055.53,1059.5c-0.09-0.11-0.16-0.22-0.23-0.31c-13.81-18.65-22.85-38.37-27.16-58.97
					c0-0.05,0-0.05,0-0.05c-5.88-28.47-2.74-58.69,9.48-90.57c1.3-3.37,2.65-6.65,4.13-9.84c1.66-3.59,3.45-7.09,5.34-10.51
					c-6.6-6.92-14-13.16-22.23-18.73c-1.77-1.34-3.55-2.63-5.35-3.89c-28.57-19.98-60.88-29.88-95.69-30.68
					c-44.63-0.99-84.37,13.83-118.91,42.16c-24.62,20.15-38.86,46.32-45.07,76.93c-0.29,1.45-0.57,2.91-0.83,4.39
					c-0.31,0.63-0.83,1.26-1.02,1.95c-0.02,0.07-0.03,0.14-0.05,0.22c-0.01,0.03-0.01,0.06-0.01,0.09
					c-9.3,55.01,6.73,100.23,51.96,134.18c35.61,26.72,75.98,38.08,120.07,36.73c44.33-1.39,83.61-15.31,115.19-47.87
					c3.2-3.3,6.22-6.66,9.05-10.05c0.18-0.22,0.35-0.43,0.52-0.64C1058.83,1068.92,1059.32,1064.57,1055.53,1059.5z"/>
			</g>
			<path class="st3" d="M1054.73,1074.04c-0.17,0.21-0.34,0.42-0.52,0.64c-2.82,3.39-5.84,6.75-9.05,10.05
				c-31.57,32.56-70.86,46.48-115.19,47.87c-44.1,1.35-84.47-10.02-120.07-36.73c-45.22-33.94-61.26-79.17-51.96-134.18
				c0-0.03,0.01-0.05,0.01-0.09c0.01-0.07,0.03-0.14,0.05-0.22c0.29-1.27,1.58-5.01,1.85-6.33c1.38,4.56,2.66,9.73,2.99,11.44
				c6.73,34.93,28.7,58.33,58.47,75.35c29.5,16.89,61.65,23.4,95.11,20.03c25.51-2.56,48.81-9.12,68.93-20.88
				c2.52-1.48,4.98-3.01,7.41-4.67c2.38-1.62,4.76-3.37,7.05-5.16c3.45-2.7,6.78-5.61,10.01-8.71c6.69-6.51,12.8-13.88,18.32-22.23
				c4.31,20.6,13.35,40.32,27.16,58.97c0.07,0.1,0.14,0.2,0.23,0.31C1059.32,1064.57,1058.83,1068.92,1054.73,1074.04z"/>
			<path class="st3" d="M1047.09,889.25c-1.89,3.41-3.68,6.92-5.34,10.51c-3.5-8.31-9.34-15.49-15.05-22.72
				c-0.9-1.16-5.26-6.12-7.19-10.4c1.79,1.26,3.58,2.55,5.35,3.89C1033.08,876.09,1040.49,882.34,1047.09,889.25z"/>
			<path class="st3" d="M928.88,945.58c-0.07,9.47-7.82,16.01-18.75,15.83c-9.83-0.17-18.39-8.61-18.24-17.99
				c0.15-9.3,7-15.65,16.84-15.63C920.02,927.8,928.95,935.69,928.88,945.58z"/>
			<path class="st3" d="M833.22,939.39c0.04,8.17-7.04,15.32-15.18,15.31c-8.2-0.01-15.22-7.08-15.18-15.3
				c0.04-8.09,6.99-14.7,15.66-14.9C825.95,924.34,833.18,931.67,833.22,939.39z"/>
			<path class="st3" d="M942.2,1015.14c-0.06-9,4.01-13.58,11.98-13.51c7,0.06,13.15,6.33,13.18,13.42
				c0.02,5.91-6.92,12.83-13.06,13C947.6,1028.24,942.25,1022.53,942.2,1015.14z"/>
			<path class="st3" d="M1007.36,966.49c-7.17-0.09-12.77-5.53-12.79-12.43c-0.03-7.12,6.3-13.05,13.68-12.83
				c7.6,0.24,11.31,4.6,11.31,13.32C1019.56,963.02,1015.91,966.59,1007.36,966.49z"/>
			<path class="st3" d="M967.27,904.3c-7.42-0.07-11.66-4.15-11.61-11.17c0.06-8.1,4.33-12.35,12.44-12.39
				c6.87-0.03,12.93,5.95,12.79,12.63C980.77,899.13,974.24,904.38,967.27,904.3z"/>
			<path class="st3" d="M846.73,1021.85c-5.78,0.01-11.72-5.85-11.81-11.63c-0.09-6.06,6.22-12.01,12.62-11.9
				c6.26,0.1,10.6,5.05,10.76,12.27C858.45,1017.28,853.77,1021.84,846.73,1021.85z"/>
			<path class="st3" d="M880.57,868.9c7.68,0.22,10.89,4.27,10.88,9.66c0,5.67-5.16,8.28-9.93,8.2c-5.85-0.09-7.64-5.52-7.63-10.29
				C873.89,871.96,876.55,868.51,880.57,868.9z"/>
		</g>
		<path class="st3" d="M1320.26,1078.38c-35.82,26.45-76.28,37.49-120.36,35.74c-44.32-1.76-83.48-16-114.79-48.8
			c-41.44-43.42-51.26-93.26-29.89-148.98c0.16-0.42,0.32-0.84,0.5-1.26c10.37-26.35,27.58-47.83,51.37-63.74
			c0.01-0.01,0.02-0.01,0.03-0.02c-7.73,11.61-17.98,26.14-20.06,38.93c-4.42,27.15-4.18,54.28,8.99,79.18
			c24.92,47.14,67,68.56,117.96,74.1c33.44,3.63,65.67-2.6,95.31-19.24c29.92-16.79,52.04-40,59.06-74.88
			c0.41-2.02,1.87-6.56,3.35-9.96c0.18,0.97,1.47,4.38,1.6,5.17C1382.16,999.71,1365.75,1044.79,1320.26,1078.38z"/>
		<path class="st3" d="M1202.52,927.14c-0.01,9.47,7.69,16.07,18.62,15.98c9.83-0.09,18.46-8.47,18.38-17.84
			c-0.08-9.3-6.87-15.71-16.71-15.77C1211.52,909.43,1202.52,917.25,1202.52,927.14z"/>
		<path class="st3" d="M1298.22,921.73c-0.11,8.17,6.92,15.38,15.05,15.44c8.2,0.06,15.28-6.96,15.31-15.18
			c0.03-8.09-6.87-14.76-15.54-15.02C1305.62,906.74,1298.33,914,1298.22,921.73z"/>
		<path class="st3" d="M1188.63,996.59c0.13-9-3.9-13.62-11.87-13.61c-7,0.01-13.21,6.22-13.29,13.31
			c-0.07,5.91,6.82,12.88,12.95,13.11C1183.13,1009.64,1188.53,1003.98,1188.63,996.59z"/>
		<path class="st3" d="M1123.87,947.41c7.17-0.03,12.81-5.43,12.9-12.33c0.09-7.12-6.19-13.11-13.57-12.94
			c-7.6,0.17-11.34,4.51-11.42,13.23C1111.7,943.84,1115.32,947.45,1123.87,947.41z"/>
		<path class="st3" d="M1164.46,885.56c7.42-0.01,11.7-4.06,11.7-11.08c0-8.1-4.23-12.39-12.34-12.49
			c-6.87-0.09-12.98,5.85-12.89,12.52C1151.01,880.27,1157.49,885.57,1164.46,885.56z"/>
		<path class="st3" d="M1284.04,1004.07c5.77,0.06,11.77-5.75,11.9-11.53c0.14-6.06-6.13-12.06-12.53-12
			c-6.26,0.05-10.64,4.97-10.86,12.18C1272.36,999.41,1277,1004,1284.04,1004.07z"/>
		<path class="st3" d="M1251.45,850.85c-7.68,0.16-10.92,4.18-10.96,9.57c-0.04,5.67,5.09,8.32,9.87,8.28
			c5.85-0.04,7.68-5.45,7.71-10.23C1258.1,853.97,1255.47,850.5,1251.45,850.85z"/>
		<path class="st0" d="M1204.7,605.47c-1.17,9.88-16.16,1.17-23.13,1.84c7.1,3.41,14.73,4.67,13.34,13.16
			c-1.48,4.9-5.39,5.48-9.74,4.63c-17.34-6.42-47.87-2.38-43.7,21.82c0.45,1.12,2.38,9.03,3.77,15.36
			c-4.63-3.82-9.74-7.01-15.18-9.88c-1.93-1.03-3.86-2.02-5.88-3.05c-6.87-14.46-23.53-16.84-39.61-14.95
			c-7.68,0.81-15.22,2.65-21.55,4.58c-9.47,3.91-25.55,1.17-26.22-10.73c-0.05-0.49-0.09-0.99-0.05-1.53
			c1.03-10.46,13.02-4.72,10.15-7.9c-9.74-3.73-14.06-13.47-1.62-17.15c7.54-3.55,24.7,9.21,27.03,4.54
			c4.58-7.5-30-14.37-35.16-21.11c-10.02-7.77-6.56-26.45,8.17-21.91c-7.63-8.67-7.41-14.86,0.58-21.2
			c7.23-3.91,14.01,4.13,20.03,8.49c8.8,6.02-15.54-30,9.65-23.22c22.54,5.61,27.57,61.79,37.72,84.29
			c0.04-29.82-20.75-74.36-16.71-100.45c0.99-6.42,3.37-13.79,13.29-11.59c2.78,0.58,1.53-2.56,1.8-3.86
			c1.98-8.89,6.24-12.66,12.89-11.14c11.68,3.41,7.05,15.54,7.54,25.51c2.78-6.29,4.08-10.19,6.47-15.45
			c5.93-16.39,29.32-3.14,20.16,11.77c10.37-12.66,20.52-1.93,12.89,7.59c-6.29,6.87-11.86,14.28-16.35,22.68
			c9.52-8.58,14.64-12.03,23.49-15.63c7.23-3.05,14.19,7.14,4.09,14.37c3.19-1.03,7.37-1.53,8.4,3.01
			c0.76,10.64-13.07,14.28-20.79,18.1c-24.38,8.49-41.85,33.59-38.26,59.86c5.43-18.95,9.61-34.08,23.44-46.61
			c10.69-6.2,21.06-3.82,16.53,12.89c7.23-5.3,26.04-18.14,24.2-0.27c-0.32,6.2-3.95,8.76-8.31,11.59
			C1196.48,594.25,1203.17,596.27,1204.7,605.47z"/>
		<path class="st8" d="M1157.38,600.65v0.02c-0.01-0.01-0.02-0.01-0.03-0.01c0.01-0.01,0.01-0.02,0.02-0.03
			C1157.38,600.64,1157.38,600.65,1157.38,600.65z"/>
	</g>
</g>
</svg>
